<svg width="28" height="29" viewBox="0 0 28 29" fill="none" xmlns="http://www.w3.org/2000/svg">
<path d="M22.1667 2.90939H10.5C8.73017 2.90939 7.29167 4.34789 7.29167 6.11773V19.2427H4.08333C3.2795 19.2427 2.625 19.8972 2.625 20.7011V22.4511C2.625 24.2209 4.0635 25.6594 5.83333 25.6594H22.1958C23.044 25.6512 23.8467 25.3141 24.4218 24.7226C25.0355 24.1229 25.3738 23.3167 25.3738 22.4511V6.11773C25.3738 4.34789 23.9365 2.90939 22.1667 2.90939ZM5.83333 23.9094C5.0295 23.9094 4.375 23.2549 4.375 22.4511V20.9927H18.9583V22.3204C18.9583 22.8921 19.0995 23.4346 19.3468 23.9094H5.83333ZM23.625 22.4511C23.625 22.8419 23.4745 23.2036 23.1852 23.4859C22.8853 23.7927 22.4805 23.9386 22.0337 23.9036C21.3033 23.8417 20.7083 23.1312 20.7083 22.3204V20.7011C20.7083 19.8972 20.0538 19.2427 19.25 19.2427H9.04167V6.11773C9.04167 5.31389 9.69617 4.65939 10.5 4.65939H22.1667C22.9705 4.65939 23.625 5.31389 23.625 6.11773V22.4511ZM17.2083 11.9511C17.2083 12.4341 16.8163 12.8261 16.3333 12.8261H11.6667C11.1837 12.8261 10.7917 12.4341 10.7917 11.9511C10.7917 11.4681 11.1837 11.0761 11.6667 11.0761H16.3333C16.8163 11.0761 17.2083 11.4681 17.2083 11.9511ZM17.2083 15.4511C17.2083 15.9341 16.8163 16.3261 16.3333 16.3261H11.6667C11.1837 16.3261 10.7917 15.9341 10.7917 15.4511C10.7917 14.9681 11.1837 14.5761 11.6667 14.5761H16.3333C16.8163 14.5761 17.2083 14.9681 17.2083 15.4511ZM21.875 15.4511C21.875 15.9341 21.483 16.3261 21 16.3261H19.8333C19.3503 16.3261 18.9583 15.9341 18.9583 15.4511C18.9583 14.9681 19.3503 14.5761 19.8333 14.5761H21C21.483 14.5761 21.875 14.9681 21.875 15.4511ZM21.875 8.45106C21.875 8.93406 21.483 9.32606 21 9.32606H19.8333C19.3503 9.32606 18.9583 8.93406 18.9583 8.45106C18.9583 7.96806 19.3503 7.57606 19.8333 7.57606H21C21.483 7.57606 21.875 7.96806 21.875 8.45106ZM17.2083 8.45106C17.2083 8.93406 16.8163 9.32606 16.3333 9.32606H11.6667C11.1837 9.32606 10.7917 8.93406 10.7917 8.45106C10.7917 7.96806 11.1837 7.57606 11.6667 7.57606H16.3333C16.8163 7.57606 17.2083 7.96806 17.2083 8.45106ZM21.875 11.9511C21.875 12.4341 21.483 12.8261 21 12.8261H19.8333C19.3503 12.8261 18.9583 12.4341 18.9583 11.9511C18.9583 11.4681 19.3503 11.0761 19.8333 11.0761H21C21.483 11.0761 21.875 11.4681 21.875 11.9511Z" fill="#8DDD8D"/>
</svg>
