<svg width="28" height="28" viewBox="0 0 28 28" fill="none" xmlns="http://www.w3.org/2000/svg">
<path d="M24.6516 5.65833C24.1966 5.27333 23.5899 5.11 22.9949 5.20333L17.9199 6.04333C17.6866 6.07833 17.4416 6.06667 17.2199 5.985L11.3166 4.025C10.8266 3.86167 10.2899 3.815 9.77661 3.90833L4.31661 4.81833C3.32495 4.98167 2.61328 5.83333 2.61328 6.83667V20.8017C2.61328 21.4083 2.88161 21.9683 3.33661 22.3533C3.79161 22.7383 4.39828 22.9017 4.99328 22.8083L10.0683 21.9683C10.3016 21.9333 10.5466 21.945 10.7683 22.0267L16.6716 23.9867C16.9983 24.0917 17.3483 24.15 17.6866 24.15C17.8616 24.15 18.0366 24.1383 18.2116 24.1033L23.6716 23.1933C24.6633 23.03 25.3749 22.1783 25.3749 21.175V7.21C25.3749 6.60333 25.1066 6.04333 24.6516 5.65833ZM11.3749 5.89167L16.6249 7.64167V22.1317L11.3749 20.3817V5.88V5.89167ZM4.71328 21.0817C4.59661 21.105 4.51495 21.0467 4.47995 21.0117C4.44495 20.9767 4.37495 20.9067 4.37495 20.79V6.825C4.37495 6.685 4.47995 6.55667 4.61995 6.53333L9.62495 5.705V20.265L4.71328 21.0817ZM23.6249 21.1867C23.6249 21.3267 23.5199 21.455 23.3799 21.4783L18.3749 22.3067V7.74667L23.2866 6.93C23.4033 6.90667 23.4849 6.965 23.5199 7C23.5549 7.035 23.6249 7.105 23.6249 7.22167V21.1867Z" fill="#8DDD8D"/>
</svg>
