<svg width="28" height="28" viewBox="0 0 28 28" fill="none" xmlns="http://www.w3.org/2000/svg">
<path d="M22.1667 4.95833H5.83333C4.06 4.95833 2.625 6.39333 2.625 8.16667V19.8333C2.625 21.6067 4.06 23.0417 5.83333 23.0417H22.1667C23.94 23.0417 25.375 21.6067 25.375 19.8333V8.16667C25.375 6.39333 23.94 4.95833 22.1667 4.95833ZM22.1667 6.70833C22.1667 6.70833 22.2483 6.73167 22.295 6.73167L15.4817 12.5767C14.6533 13.2883 13.3467 13.2883 12.5183 12.5767L5.705 6.73167C5.705 6.73167 5.78667 6.70833 5.83333 6.70833H22.1667ZM23.625 19.8333C23.625 20.6383 22.9717 21.2917 22.1667 21.2917H5.83333C5.02833 21.2917 4.375 20.6383 4.375 19.8333V8.16667C4.375 8.085 4.41 8.015 4.42167 7.945L11.375 13.9067C12.0983 14.5367 13.0317 14.875 14 14.875C14.9683 14.875 15.89 14.525 16.625 13.9067L23.5783 7.945C23.59 8.02667 23.625 8.085 23.625 8.16667V19.8333Z" fill="#8DDD8D"/>
</svg>
