<svg width="28" height="28" viewBox="0 0 28 28" fill="none" xmlns="http://www.w3.org/2000/svg">
<path d="M14 2.625C7.72333 2.625 2.625 7.72333 2.625 14C2.625 20.2767 7.72333 25.375 14 25.375C20.2767 25.375 25.375 20.2767 25.375 14C25.375 7.72333 20.2767 2.625 14 2.625ZM14 23.625C8.69167 23.625 4.375 19.3083 4.375 14C4.375 8.69167 8.69167 4.375 14 4.375C19.3083 4.375 23.625 8.69167 23.625 14C23.625 19.3083 19.3083 23.625 14 23.625Z" fill="#8DDD8D"/>
<path fill-rule="evenodd" clip-rule="evenodd" d="M15.3609 9.89474C12.8317 9.89474 10.8947 11.7933 10.8947 14C10.8947 16.2067 12.8317 18.1053 15.3609 18.1053C16.0072 18.1053 16.6181 17.9795 17.1686 17.755C17.653 17.5574 18.206 17.79 18.4036 18.2745C18.6011 18.7589 18.3685 19.3118 17.884 19.5094C17.1082 19.8258 16.2544 20 15.3609 20C11.9105 20 9 17.3741 9 14C9 10.6258 11.9105 8 15.3609 8C16.2544 8 17.1082 8.1742 17.884 8.49056C18.3685 8.68813 18.6011 9.24104 18.4036 9.72552C18.206 10.21 17.653 10.4426 17.1686 10.245C16.6181 10.0206 16.0072 9.89474 15.3609 9.89474Z" fill="#8DDD8D"/>
</svg>
